HIERARCHY
ROOT Hips
{
	OFFSET 0.000000 0.000000 0.000000
	CHANNELS 6 Xposition Yposition Zposition Zrotation Yrotation Xrotation 
	JOINT LHipJoint
	{
		OFFSET 0.000000 0.000000 0.000000
		CHANNELS 3 Zrotation Yrotation Xrotation
		JOINT LeftUpLeg
		{
			OFFSET 1.363060 -1.794630 0.839290
			CHANNELS 3 Zrotation Yrotation Xrotation
			JOINT LeftLeg
			{
				OFFSET 2.448110 -6.726130 0.000000
				CHANNELS 3 Zrotation Yrotation Xrotation
				JOINT LeftFoot
				{
					OFFSET 2.562200 -7.039590 0.000000
					CHANNELS 3 Zrotation Yrotation Xrotation
					JOINT LeftToeBase
					{
						OFFSET 0.157640 -0.433110 2.322550
						CHANNELS 3 Zrotation Yrotation Xrotation
						End Site
						{
							OFFSET 0.000000 0.000000 0.000000
						}
					}
				}
			}
		}
	}
	JOINT RHipJoint
	{
		OFFSET 0.000000 0.000000 0.000000
		CHANNELS 3 Zrotation Yrotation Xrotation
		JOINT RightUpLeg
		{
			OFFSET -1.305520 -1.794630 0.839290
			CHANNELS 3 Zrotation Yrotation Xrotation
			JOINT RightLeg
			{
				OFFSET -2.542530 -6.985550 0.000000
				CHANNELS 3 Zrotation Yrotation Xrotation
				JOINT RightFoot
				{
					OFFSET -2.568260 -7.056230 0.000000
					CHANNELS 3 Zrotation Yrotation Xrotation
					JOINT RightToeBase
					{
						OFFSET -0.164730 -0.452590 2.363150
						CHANNELS 3 Zrotation Yrotation Xrotation
						End Site
						{
							OFFSET 0.000000 0.000000 0.000000
						}
					}
				}
			}
		}
	}
	JOINT LowerBack
	{
		OFFSET 0.000000 0.000000 0.000000
		CHANNELS 3 Zrotation Yrotation Xrotation
		JOINT Spine
		{
			OFFSET 0.028270 2.035590 -0.193380
			CHANNELS 3 Zrotation Yrotation Xrotation
			JOINT Spine1
			{
				OFFSET 0.056720 2.048850 -0.042750
				CHANNELS 3 Zrotation Yrotation Xrotation
				JOINT Neck
				{
					OFFSET 0.000000 0.000000 0.000000
					CHANNELS 3 Zrotation Yrotation Xrotation
					JOINT Neck1
					{
						OFFSET -0.054170 1.746240 0.172020
						CHANNELS 3 Zrotation Yrotation Xrotation
						JOINT Head
						{
							OFFSET 0.104070 1.761360 -0.123970
							CHANNELS 3 Zrotation Yrotation Xrotation
							End Site
							{
								OFFSET 0.000000 0.000000 0.000000
							}
						}
					}
				}
				JOINT LeftShoulder
				{
					OFFSET 0.000000 0.000000 0.000000
					CHANNELS 3 Zrotation Yrotation Xrotation
					JOINT LeftArm
					{
						OFFSET 3.362410 1.200890 -0.311210
						CHANNELS 3 Zrotation Yrotation Xrotation
						JOINT LeftForeArm
						{
							OFFSET 4.983000 -0.000000 -0.000000
							CHANNELS 3 Zrotation Yrotation Xrotation
							JOINT LeftHand
							{
								OFFSET 3.483560 -0.000000 -0.000000
								CHANNELS 3 Zrotation Yrotation Xrotation
								JOINT LeftFingerBase
								{
									OFFSET 0.000000 0.000000 0.000000
									CHANNELS 3 Zrotation Yrotation Xrotation
									JOINT LeftHandIndex1
									{
										OFFSET 0.715260 -0.000000 -0.000000
										CHANNELS 3 Zrotation Yrotation Xrotation
										End Site
										{
											OFFSET 0.000000 0.000000 0.000000
										}
									}
								}
								JOINT LThumb
								{
									OFFSET 0.000000 0.000000 0.000000
									CHANNELS 3 Zrotation Yrotation Xrotation
									End Site
									{
										OFFSET 0.000000 0.000000 0.000000
									}
								}
							}
						}
					}
				}
				JOINT RightShoulder
				{
					OFFSET 0.000000 0.000000 0.000000
					CHANNELS 3 Zrotation Yrotation Xrotation
					JOINT RightArm
					{
						OFFSET -3.136600 1.374050 -0.404650
						CHANNELS 3 Zrotation Yrotation Xrotation
						JOINT RightForeArm
						{
							OFFSET -5.241900 -0.000000 -0.000000
							CHANNELS 3 Zrotation Yrotation Xrotation
							JOINT RightHand
							{
								OFFSET -3.444170 -0.000000 -0.000000
								CHANNELS 3 Zrotation Yrotation Xrotation
								JOINT RightFingerBase
								{
									OFFSET 0.000000 0.000000 0.000000
									CHANNELS 3 Zrotation Yrotation Xrotation
									JOINT RightHandIndex1
									{
										OFFSET -0.622530 -0.000000 -0.000000
										CHANNELS 3 Zrotation Yrotation Xrotation
										End Site
										{
											OFFSET 0.000000 0.000000 0.000000
										}
									}
								}
								JOINT RThumb
								{
									OFFSET 0.000000 0.000000 0.000000
									CHANNELS 3 Zrotation Yrotation Xrotation
									End Site
									{
										OFFSET 0.000000 0.000000 0.000000
									}
								}
							}
						}
					}
				}
			}
		}
	}
}
MOTION
Frames: 11
Frame Time: 0.016667
-1.771905 17.722715 25.141686 -2.158407 1.627926 4.883661 -15.427919 23.474986 4.729736 -13.015052 -21.845257 -34.920730 20.894609 -1.469280 36.482209 -0.842014 -2.497009 13.617322 0.000000 0.000000 0.000000 9.303581 -26.018007 22.722285 -2.774089 15.138689 -22.622859 12.394371 -12.209494 42.173191 18.269665 -30.823087 18.828515 0.000000 0.000000 0.000000 4.118854 3.950750 -25.079440 -1.496803 3.797703 64.088054 -14.137305 2.004996 -30.808465 -15.882605 6.090225 -9.231669 21.069519 2.549949 -1.886863 0.000000 0.000000 0.000000 -13.182378 4.994821 1.562826 -57.281031 -16.966999 0.844797 -14.543736 -10.508292 0.047670 -1.185905 -0.837248 0.023840 -1.186519 -0.837389 -0.000000 0.000000 0.000000 0.000000 0.000000 0.000000 0.000000 14.241883 -12.278921 -0.768982 58.731365 16.319309 0.259199 20.613635 16.549748 -0.102402 -1.619234 4.141927 -0.051345 -1.625469 4.141055 0.000000 0.000000 0.000000 0.000000 0.000000 0.000000 0.000000 
-1.838596 17.757404 25.537860 -2.444972 1.350078 5.114319 -13.875583 27.341258 7.297015 -14.330918 -23.978115 -36.434933 21.477815 -2.957825 36.695079 -0.684106 -3.310672 14.612872 0.000000 0.000000 0.000000 9.697107 -28.442400 25.079948 -4.045283 15.995367 -24.570724 11.758007 -10.841275 41.513156 19.061442 -32.905660 20.605743 0.000000 0.000000 0.000000 2.037605 2.321700 -29.995636 2.503192 1.726314 69.231976 -14.756404 2.428594 -30.596850 -13.946571 5.799918 -5.127624 19.476308 2.858906 -4.755512 0.000000 0.000000 0.000000 -13.410220 7.398683 0.786714 -59.763340 -17.566044 1.340277 -15.370678 -11.535616 0.071926 -1.356230 -0.654501 0.035975 -1.357296 -0.654665 0.000000 0.000000 0.000000 0.000000 0.000000 0.000000 0.000000 12.070822 -13.028022 -1.250417 59.897491 17.091026 0.203496 21.416360 13.822385 -0.098817 -1.546857 4.160649 -0.049542 -1.552722 4.159875 0.000000 0.000000 0.000000 0.000000 0.000000 0.000000 0.000000 
-1.901191 17.789800 25.904168 -2.642060 0.978165 5.502690 -12.400236 30.400182 9.613096 -15.350884 -25.575899 -37.542491 21.769227 -4.107504 36.446380 -0.481572 -4.068018 15.280639 0.000000 0.000000 0.000000 10.159224 -30.240738 26.861468 -5.253438 16.523289 -26.043684 11.220330 -9.623631 40.662834 19.723469 -34.949183 22.179327 0.000000 0.000000 0.000000 0.069613 0.673071 -33.964509 6.140581 -0.424518 72.563628 -14.946007 2.684589 -29.744950 -11.429468 5.065551 -0.070431 17.296837 2.979035 -7.774191 0.000000 0.000000 0.000000 -14.185673 9.788145 0.036234 -61.741798 -17.940810 1.825700 -16.103675 -12.251217 0.092933 -1.468131 -0.480592 0.046486 -1.469644 -0.480778 0.000000 0.000000 0.000000 0.000000 0.000000 0.000000 0.000000 10.205082 -13.509121 -1.613333 60.695079 17.726046 0.198757 21.896846 11.321989 -0.094481 -1.464491 4.125667 -0.047361 -1.469873 4.125003 0.000000 0.000000 0.000000 0.000000 0.000000 0.000000 0.000000 
-1.966502 17.816310 26.234635 -2.676844 0.735544 5.961998 -10.771589 32.867551 11.723658 -16.598996 -26.807348 -37.968376 21.851214 -5.092687 35.653161 -0.248348 -4.866401 15.663095 0.000000 0.000000 0.000000 10.770953 -31.504625 28.112928 -6.398694 16.744886 -27.177393 10.762181 -8.629341 39.859260 20.480538 -37.141019 23.333194 0.000000 0.000000 0.000000 -2.036014 -1.087187 -37.131490 9.625701 -2.640101 74.261187 -14.876117 2.816419 -28.403856 -8.834613 4.054777 4.759964 14.908710 2.915974 -10.523987 0.000000 0.000000 0.000000 -15.123696 11.793247 -0.503684 -63.225160 -18.002084 2.297274 -16.909269 -12.908037 0.109927 -1.523169 -0.335253 0.054992 -1.525099 -0.335460 0.000000 0.000000 0.000000 0.000000 0.000000 0.000000 0.000000 8.661906 -13.660454 -1.730208 61.174844 18.126539 0.259134 22.023322 9.273190 -0.089474 -1.389667 4.032574 -0.044842 -1.394494 4.032011 0.000000 0.000000 0.000000 0.000000 0.000000 0.000000 0.000000 
-2.033826 17.836253 26.527971 -2.566641 0.643086 6.484038 -9.030215 34.797084 13.643231 -18.051711 -27.690784 -37.789215 21.726180 -5.946506 34.345881 0.003791 -5.741129 15.726609 0.000000 0.000000 0.000000 11.588358 -32.282697 28.886451 -7.492706 16.707035 -28.064183 10.378446 -7.853376 39.179846 21.366065 -39.422743 24.018218 0.000000 0.000000 0.000000 -4.309759 -2.945554 -39.533438 13.045665 -4.860593 74.723168 -14.604527 2.850809 -26.852308 -6.157346 2.872534 9.059519 12.288347 2.679379 -12.900044 0.000000 0.000000 0.000000 -16.146464 13.415966 -0.900762 -64.308895 -17.858079 2.735109 -17.788885 -13.460395 0.121616 -1.521155 -0.222410 0.060844 -1.523424 -0.222622 0.000000 0.000000 0.000000 0.000000 0.000000 0.000000 0.000000 7.337435 -13.644112 -1.696792 61.415992 18.339522 0.396708 21.908290 7.648483 -0.083847 -1.319578 3.893354 -0.042014 -1.323813 3.892887 0.000000 0.000000 0.000000 0.000000 0.000000 0.000000 0.000000 
-2.090511 17.856191 26.791772 -2.387776 0.615810 7.068898 -7.571642 36.205567 15.379987 -19.193245 -28.202396 -37.488497 21.424087 -6.650558 32.698076 0.241738 -6.625951 15.562225 0.000000 0.000000 0.000000 12.459507 -32.705838 29.263660 -8.422099 16.526318 -28.667107 10.050941 -7.165814 38.558379 22.244279 -41.672890 24.456988 0.000000 0.000000 0.000000 -6.276794 -4.555240 -41.253679 15.916540 -6.643241 74.245722 -14.156730 2.842304 -25.342300 -3.862986 1.732019 12.835842 9.928716 2.356814 -14.732166 0.000000 0.000000 0.000000 -17.151777 14.665409 -1.148706 -64.977281 -17.574987 3.127973 -18.670907 -13.820916 0.128314 -1.481311 -0.144102 0.064198 -1.483819 -0.144298 0.000000 0.000000 0.000000 0.000000 0.000000 0.000000 0.000000 6.555566 -13.616272 -1.623133 61.246783 18.321806 0.594768 21.756407 6.397371 -0.079202 -1.263015 3.738936 -0.039678 -1.266740 3.738552 0.000000 0.000000 0.000000 0.000000 0.000000 0.000000 0.000000 
-2.136098 17.875847 27.024704 -2.167187 0.660003 7.675425 -6.397249 37.157147 16.929823 -20.020749 -28.360684 -37.087608 20.941639 -7.245239 30.686177 0.447220 -7.514825 15.168014 0.000000 0.000000 0.000000 13.384181 -32.800779 29.310222 -9.190282 16.234415 -29.019299 9.774171 -6.559070 38.043470 23.120969 -43.841433 24.660678 0.000000 0.000000 0.000000 -7.958820 -5.919025 -42.405483 18.341351 -8.048072 73.212040 -13.654959 2.789860 -24.046013 -1.982483 0.747380 15.920674 7.873269 2.012533 -16.041198 0.000000 0.000000 0.000000 -18.094903 15.541634 -1.267621 -65.289997 -17.197669 3.458365 -19.563099 -13.978427 0.129796 -1.405362 -0.101795 0.064942 -1.407985 -0.101948 0.000000 0.000000 0.000000 0.000000 0.000000 0.000000 0.000000 6.190965 -13.616097 -1.529887 60.760465 18.112736 0.834334 21.612751 5.479436 -0.075425 -1.218973 3.574552 -0.037779 -1.222261 3.574238 0.000000 0.000000 0.000000 0.000000 0.000000 0.000000 0.000000 
-2.171376 17.895829 27.228572 -1.956832 0.706246 8.284853 -5.556492 37.674969 18.234276 -20.436095 -28.208155 -36.698213 20.301233 -7.701075 28.463037 0.589741 -8.282636 14.624965 0.000000 0.000000 0.000000 14.282019 -32.650371 29.169155 -9.814329 15.866778 -29.143716 9.560603 -6.028505 37.498846 23.719609 -45.618537 24.907996 0.000000 0.000000 0.000000 -9.304607 -6.926794 -43.072949 20.170200 -9.009967 71.933854 -12.971203 2.737535 -23.151483 -0.413879 -0.072188 18.388474 5.999383 1.660638 -16.866185 0.000000 0.000000 0.000000 -18.855526 16.274375 -1.293352 -65.443139 -16.737497 3.707710 -20.361780 -13.915415 0.128057 -1.331377 -0.101731 0.064073 -1.334017 -0.101842 0.000000 0.000000 0.000000 0.000000 0.000000 0.000000 0.000000 6.132615 -13.763524 -1.449914 60.124841 17.725943 1.090138 21.635440 4.638176 -0.072904 -1.176206 3.437468 -0.036511 -1.179173 3.437216 0.000000 0.000000 0.000000 0.000000 0.000000 0.000000 0.000000 
-2.195625 17.916117 27.401492 -1.775255 0.759062 8.871956 -5.055498 37.791032 19.287773 -20.437842 -27.760953 -36.311849 19.506066 -8.047556 25.990420 0.658567 -8.907137 13.950163 0.000000 0.000000 0.000000 15.138417 -32.272950 28.875831 -10.287762 15.430380 -29.053264 9.391175 -5.593187 36.937408 23.996794 -46.976137 25.281988 0.000000 0.000000 0.000000 -10.320827 -7.576678 -43.322918 21.432369 -9.590761 70.557825 -12.161430 2.682684 -22.685449 0.815461 -0.673833 20.221607 4.329501 1.335336 -17.282625 0.000000 0.000000 0.000000 -19.417403 16.850949 -1.221952 -65.447648 -16.204693 3.855687 -21.063666 -13.626605 0.122922 -1.258825 -0.145266 0.061503 -1.261375 -0.145337 0.000000 0.000000 0.000000 0.000000 0.000000 0.000000 0.000000 6.340780 -14.033310 -1.376394 59.363527 17.183081 1.337572 21.822133 3.849787 -0.071715 -1.135359 3.324780 -0.035911 -1.138106 3.324578 0.000000 0.000000 0.000000 0.000000 0.000000 0.000000 0.000000 
-2.210859 17.939894 27.551510 -1.685119 0.714841 9.410526 -5.021874 37.464573 19.975422 -19.794287 -27.043719 -36.144618 18.566426 -8.133868 23.684316 0.646207 -9.212375 13.223326 0.000000 0.000000 0.000000 15.931661 -31.731560 28.503284 -10.610839 14.953298 -28.778409 9.211881 -5.183684 36.365305 23.781032 -47.880944 26.040643 0.000000 0.000000 0.000000 -10.954789 -7.705089 -43.083157 21.972750 -9.698035 69.238794 -11.071707 2.613327 -22.922891 1.781855 -1.158282 22.136178 2.844082 1.044458 -17.402907 0.000000 0.000000 0.000000 -19.947071 17.620484 -1.171861 -65.215045 -15.608659 4.040615 -21.819893 -13.126566 0.115815 -1.171919 -0.208100 0.057947 -1.174337 -0.208129 0.000000 0.000000 0.000000 0.000000 0.000000 0.000000 0.000000 7.032778 -14.682788 -1.461815 58.379282 16.396826 1.651389 22.243975 2.807681 -0.070167 -1.071057 3.220457 -0.035132 -1.073584 3.220312 0.000000 0.000000 0.000000 0.000000 0.000000 0.000000 0.000000 
-2.216075 17.967641 27.676730 -1.684194 0.558161 9.898091 -5.477765 36.716403 20.284463 -18.549946 -26.064295 -36.163516 17.528131 -7.960869 21.560513 0.566831 -9.207340 12.433379 0.000000 0.000000 0.000000 16.635735 -31.025241 28.052219 -10.778024 14.431635 -28.320219 9.013505 -4.817615 35.779006 23.011237 -48.288181 27.258745 0.000000 0.000000 0.000000 -11.172196 -7.323061 -42.348218 21.787059 -9.361018 67.957061 -9.772057 2.553004 -23.876636 2.369473 -1.458801 24.249040 1.645871 0.821700 -17.268694 0.000000 0.000000 0.000000 -20.430602 18.572513 -1.122954 -64.701997 -14.921031 4.274391 -22.625009 -12.427426 0.106771 -1.071206 -0.290496 0.053421 -1.073453 -0.290481 0.000000 0.000000 0.000000 0.000000 0.000000 0.000000 0.000000 8.251319 -15.695049 -1.724461 57.107238 15.378276 2.056870 22.835317 1.764165 -0.067803 -0.982216 3.088141 -0.033944 -0.984467 3.088057 0.000000 0.000000 0.000000 0.000000 0.000000 0.000000 0.000000 
